<!DOCTYPE svg PUBLIC "-//W3C//DTD SVG 1.1//EN" "http://www.w3.org/Graphics/SVG/1.1/DTD/svg11.dtd">
<!-- Uploaded to: SVG Repo, www.svgrepo.com, Transformed by: SVG Repo Mixer Tools -->
<svg fill="#087dee" width="234px" height="234px" viewBox="-4.32 -4.32 32.64 32.64" xmlns="http://www.w3.org/2000/svg" preserveAspectRatio="xMinYMin" class="jam jam-gps-f" transform="matrix(1, 0, 0, 1, 0, 0)">
<g id="SVGRepo_bgCarrier" stroke-width="0" transform="translate(0.6000000000000014,0.6000000000000014), scale(0.95)">
<path transform="translate(-4.32, -4.32), scale(1.02)" d="M16,28.033729691058397C18.289082767021927,27.734361067351653,20.45615477414885,27.18179666165444,22.51523186710291,26.13789867218962C24.772615141400024,24.99346465874064,27.141073063575895,23.845887388030434,28.487546802021992,21.702871538837922C29.920915470186372,19.421555768686197,30.574789167140352,16.62627268913055,30.164535601877592,13.96344723593098C29.756134963825534,11.312648544123293,28.23849802848209,8.916127730613468,26.241662271590872,7.125549124226319C24.375916559981594,5.452520010721648,21.725563257962403,5.328638170518605,19.425534936222626,4.333699381337306C16.717780282332072,3.162387658225969,14.464433727177807,0.5075284289445794,11.524970905793623,0.759450520203206C8.49863459452591,1.0188179688540662,5.9273875715475075,3.2580400010831174,4.056479299531247,5.650880401113644C2.2351789426665887,7.980273637372687,0.8806114657098407,10.949673878245784,1.265172380384893,13.881451622541725C1.627776309402058,16.64583585536235,4.770300562590457,18.065083654292614,6.012269744827952,20.56124357432544C7.191053170903623,22.930410204747034,6.170252027819618,26.41316335323376,8.289091312083364,27.998408121638498C10.389709867038983,29.570020749074953,13.398687462076593,28.373932048757492,16,28.033729691058397" fill="#7ed0ec" strokewidth="0"/>
</g>
<g id="SVGRepo_tracerCarrier" stroke-linecap="round" stroke-linejoin="round"/>
<g id="SVGRepo_iconCarrier">
<path d="M18.919 2.635l-5.953 16.08c-.376 1.016-1.459 1.538-2.418 1.165a1.851 1.851 0 0 1-1.045-1.054l-1.887-4.77a3.712 3.712 0 0 0-1.955-2.052l-4.542-1.981C.174 9.61-.256 8.465.157 7.465a1.97 1.97 0 0 1 1.067-1.079L16.54.136c.967-.395 2.04.101 2.395 1.109.157.446.151.94-.015 1.39z"/>
</g>
</svg>