<svg width="24" height="24" viewBox="0 0 24 24" fill="none" xmlns="http://www.w3.org/2000/svg">
    <path
        d="M12 2C11.782 2 11.568 2.002 11.358 2.005L10.742 2.022L10.443 2.035L9.864 2.069L9.311 2.115C4.526 2.579 2.579 4.526 2.115 9.311L2.069 9.864L2.035 10.443C2.03 10.541 2.025 10.641 2.022 10.742L2.005 11.358L2.001 11.676L2 12C2 12.218 2.002 12.432 2.005 12.642L2.022 13.258L2.035 13.557L2.069 14.136L2.115 14.689C2.579 19.474 4.526 21.421 9.311 21.885L9.864 21.931L10.443 21.965C10.541 21.97 10.641 21.975 10.742 21.978L11.358 21.995L12 22L12.642 21.995L13.258 21.978L13.557 21.965L14.136 21.931L14.689 21.885C19.474 21.421 21.421 19.474 21.885 14.689L21.931 14.136L21.965 13.557C21.97 13.459 21.975 13.359 21.978 13.258L21.995 12.642L22 12L21.995 11.358L21.978 10.742L21.965 10.443L21.931 9.864L21.885 9.311C21.421 4.526 19.474 2.579 14.689 2.115L14.136 2.069L13.557 2.035C13.4574 2.03014 13.3577 2.0258 13.258 2.022L12.642 2.005L12.324 2.001L12 2ZM12.01 7C12.2649 7.00028 12.51 7.09788 12.6954 7.27285C12.8807 7.44782 12.9922 7.68695 13.0072 7.94139C13.0221 8.19584 12.9393 8.44638 12.7757 8.64183C12.6121 8.83729 12.3801 8.9629 12.127 8.993L12 9C11.7451 8.99972 11.5 8.90212 11.3146 8.72715C11.1293 8.55218 11.0178 8.31305 11.0028 8.05861C10.9879 7.80416 11.0707 7.55362 11.2343 7.35817C11.3979 7.16271 11.6299 7.0371 11.883 7.007L12.01 7ZM12 11C12.2449 11 12.4813 11.09 12.6644 11.2527C12.8474 11.4155 12.9643 11.6397 12.993 11.883L13 12V15L13.117 15.007C13.3402 15.0333 13.5481 15.1341 13.707 15.293C13.8659 15.4519 13.9667 15.6598 13.993 15.883L14 16C14 16.2449 13.91 16.4813 13.7473 16.6644C13.5845 16.8474 13.3603 16.9643 13.117 16.993L13 17H12C11.7551 17 11.5187 16.91 11.3356 16.7473C11.1526 16.5845 11.0357 16.3603 11.007 16.117L11 16V13C10.7451 12.9997 10.5 12.9021 10.3146 12.7272C10.1293 12.5522 10.0178 12.313 10.0028 12.0586C9.98789 11.8042 10.0707 11.5536 10.2343 11.3582C10.3979 11.1627 10.6299 11.0371 10.883 11.007L11 11H12Z"
        fill="#E8432D" />
</svg>
